<mxfile host="app.diagrams.net" modified="2021-04-13T09:34:09.776Z" agent="5.0 (Windows NT 10.0; Win64; x64) AppleWebKit/537.36 (KHTML, like Gecko) Chrome/89.0.4389.114 Safari/537.36 Edg/89.0.774.75" etag="_Gr1P1zMhE7t5KUBok92" version="14.5.10" type="github" pages="2">
  <diagram id="lK9nZaVqMlM8sbXci29S" name="Page-1">
    <mxGraphModel dx="252" dy="563" grid="0" gridSize="10" guides="1" tooltips="1" connect="1" arrows="1" fold="1" page="0" pageScale="1" pageWidth="827" pageHeight="1169" math="0" shadow="0">
      <root>
        <mxCell id="0" />
        <mxCell id="1" parent="0" />
        <mxCell id="Fjx9dnmoz72Yz2STyHT2-3" value="" style="edgeStyle=orthogonalEdgeStyle;rounded=0;orthogonalLoop=1;jettySize=auto;html=1;fontSize=13;" parent="1" source="Fjx9dnmoz72Yz2STyHT2-1" target="Fjx9dnmoz72Yz2STyHT2-2" edge="1">
          <mxGeometry relative="1" as="geometry" />
        </mxCell>
        <UserObject label="&lt;div style=&quot;font-size: 13px;&quot;&gt;job.JobFactory.&lt;/div&gt;&lt;div style=&quot;font-size: 13px;&quot;&gt;createJob()&lt;br style=&quot;color: rgb(0, 0, 0); font-family: helvetica; font-size: 13px; font-style: normal; letter-spacing: normal; text-align: center; text-indent: 0px; text-transform: none; word-spacing: 0px; background-color: rgb(255, 255, 255);&quot;&gt;&lt;br style=&quot;font-size: 13px;&quot;&gt;&lt;/div&gt;" id="Fjx9dnmoz72Yz2STyHT2-1">
          <mxCell style="whiteSpace=wrap;html=1;align=center;treeFolding=1;treeMoving=1;newEdgeStyle={&quot;edgeStyle&quot;:&quot;elbowEdgeStyle&quot;,&quot;startArrow&quot;:&quot;none&quot;,&quot;endArrow&quot;:&quot;none&quot;};fontStyle=0;fontSize=13;" parent="1" vertex="1">
            <mxGeometry x="806" y="235" width="164" height="60" as="geometry" />
          </mxCell>
        </UserObject>
        <UserObject label="&lt;div style=&quot;font-size: 13px;&quot;&gt;job.JobFactory.&lt;/div&gt;&lt;div style=&quot;font-size: 13px;&quot;&gt;getRestoreJob()&lt;br style=&quot;color: rgb(0, 0, 0); font-family: helvetica; font-size: 13px; font-style: normal; letter-spacing: normal; text-align: center; text-indent: 0px; text-transform: none; word-spacing: 0px; background-color: rgb(255, 255, 255);&quot;&gt;&lt;br style=&quot;font-size: 13px;&quot;&gt;&lt;/div&gt;" id="Fjx9dnmoz72Yz2STyHT2-2">
          <mxCell style="whiteSpace=wrap;html=1;align=center;treeFolding=1;treeMoving=1;newEdgeStyle={&quot;edgeStyle&quot;:&quot;elbowEdgeStyle&quot;,&quot;startArrow&quot;:&quot;none&quot;,&quot;endArrow&quot;:&quot;none&quot;};fontStyle=0;fontSize=13;" parent="1" vertex="1">
            <mxGeometry x="1050" y="235" width="164" height="60" as="geometry" />
          </mxCell>
        </UserObject>
        <mxCell id="Fjx9dnmoz72Yz2STyHT2-6" value="" style="edgeStyle=orthogonalEdgeStyle;rounded=0;orthogonalLoop=1;jettySize=auto;html=1;fontSize=13;" parent="1" source="Fjx9dnmoz72Yz2STyHT2-4" target="Fjx9dnmoz72Yz2STyHT2-5" edge="1">
          <mxGeometry relative="1" as="geometry" />
        </mxCell>
        <mxCell id="Fjx9dnmoz72Yz2STyHT2-7" value="" style="edgeStyle=orthogonalEdgeStyle;rounded=0;orthogonalLoop=1;jettySize=auto;html=1;fontSize=13;" parent="1" source="Fjx9dnmoz72Yz2STyHT2-4" target="Fjx9dnmoz72Yz2STyHT2-5" edge="1">
          <mxGeometry relative="1" as="geometry" />
        </mxCell>
        <mxCell id="Fjx9dnmoz72Yz2STyHT2-9" style="edgeStyle=orthogonalEdgeStyle;rounded=0;orthogonalLoop=1;jettySize=auto;html=1;exitX=0.75;exitY=1;exitDx=0;exitDy=0;entryX=0;entryY=0.5;entryDx=0;entryDy=0;fontSize=13;" parent="1" source="Fjx9dnmoz72Yz2STyHT2-4" target="Fjx9dnmoz72Yz2STyHT2-8" edge="1">
          <mxGeometry relative="1" as="geometry" />
        </mxCell>
        <mxCell id="Fjx9dnmoz72Yz2STyHT2-11" style="edgeStyle=orthogonalEdgeStyle;rounded=0;orthogonalLoop=1;jettySize=auto;html=1;exitX=0.5;exitY=1;exitDx=0;exitDy=0;entryX=0;entryY=0.5;entryDx=0;entryDy=0;fontSize=13;" parent="1" source="Fjx9dnmoz72Yz2STyHT2-4" target="Fjx9dnmoz72Yz2STyHT2-10" edge="1">
          <mxGeometry relative="1" as="geometry" />
        </mxCell>
        <UserObject label="&lt;div style=&quot;font-size: 13px;&quot;&gt;job.RestoreJob.&lt;/div&gt;&lt;div style=&quot;font-size: 13px;&quot;&gt;triggerJob()&lt;br style=&quot;color: rgb(0, 0, 0); font-family: helvetica; font-size: 13px; font-style: normal; letter-spacing: normal; text-align: center; text-indent: 0px; text-transform: none; word-spacing: 0px; background-color: rgb(255, 255, 255);&quot;&gt;&lt;br style=&quot;font-size: 13px;&quot;&gt;&lt;/div&gt;" id="Fjx9dnmoz72Yz2STyHT2-4">
          <mxCell style="whiteSpace=wrap;html=1;align=center;treeFolding=1;treeMoving=1;newEdgeStyle={&quot;edgeStyle&quot;:&quot;elbowEdgeStyle&quot;,&quot;startArrow&quot;:&quot;none&quot;,&quot;endArrow&quot;:&quot;none&quot;};fontStyle=0;fontSize=13;" parent="1" vertex="1">
            <mxGeometry x="806" y="328" width="164" height="60" as="geometry" />
          </mxCell>
        </UserObject>
        <mxCell id="Fjx9dnmoz72Yz2STyHT2-24" value="" style="edgeStyle=orthogonalEdgeStyle;rounded=0;orthogonalLoop=1;jettySize=auto;html=1;fontSize=13;" parent="1" source="Fjx9dnmoz72Yz2STyHT2-5" target="Fjx9dnmoz72Yz2STyHT2-23" edge="1">
          <mxGeometry relative="1" as="geometry" />
        </mxCell>
        <UserObject label="&lt;div style=&quot;font-size: 13px;&quot;&gt;backup.BackupManager.&lt;/div&gt;&lt;div style=&quot;font-size: 13px;&quot;&gt;getBackup()&lt;br style=&quot;color: rgb(0, 0, 0); font-family: helvetica; font-size: 13px; font-style: normal; letter-spacing: normal; text-align: center; text-indent: 0px; text-transform: none; word-spacing: 0px; background-color: rgb(255, 255, 255);&quot;&gt;&lt;br style=&quot;font-size: 13px;&quot;&gt;&lt;/div&gt;" id="Fjx9dnmoz72Yz2STyHT2-5">
          <mxCell style="whiteSpace=wrap;html=1;align=center;treeFolding=1;treeMoving=1;newEdgeStyle={&quot;edgeStyle&quot;:&quot;elbowEdgeStyle&quot;,&quot;startArrow&quot;:&quot;none&quot;,&quot;endArrow&quot;:&quot;none&quot;};fontStyle=0;fontSize=13;" parent="1" vertex="1">
            <mxGeometry x="1050" y="328" width="164" height="60" as="geometry" />
          </mxCell>
        </UserObject>
        <UserObject label="&lt;div style=&quot;font-size: 13px;&quot;&gt;job.RestoreJob.&lt;/div&gt;&lt;div style=&quot;font-size: 13px;&quot;&gt;validate()&lt;br style=&quot;color: rgb(0, 0, 0); font-family: helvetica; font-size: 13px; font-style: normal; letter-spacing: normal; text-align: center; text-indent: 0px; text-transform: none; word-spacing: 0px; background-color: rgb(255, 255, 255);&quot;&gt;&lt;br style=&quot;font-size: 13px;&quot;&gt;&lt;/div&gt;" id="Fjx9dnmoz72Yz2STyHT2-8">
          <mxCell style="whiteSpace=wrap;html=1;align=center;treeFolding=1;treeMoving=1;newEdgeStyle={&quot;edgeStyle&quot;:&quot;elbowEdgeStyle&quot;,&quot;startArrow&quot;:&quot;none&quot;,&quot;endArrow&quot;:&quot;none&quot;};fontStyle=0;fontSize=13;" parent="1" vertex="1">
            <mxGeometry x="1050" y="408" width="164" height="60" as="geometry" />
          </mxCell>
        </UserObject>
        <mxCell id="Fjx9dnmoz72Yz2STyHT2-13" value="" style="edgeStyle=orthogonalEdgeStyle;rounded=0;orthogonalLoop=1;jettySize=auto;html=1;fontSize=13;" parent="1" source="Fjx9dnmoz72Yz2STyHT2-10" target="Fjx9dnmoz72Yz2STyHT2-12" edge="1">
          <mxGeometry relative="1" as="geometry" />
        </mxCell>
        <UserObject label="&lt;div style=&quot;font-size: 13px;&quot;&gt;job.JobStage.&lt;/div&gt;&lt;div style=&quot;font-size: 13px;&quot;&gt;trigger()&lt;br style=&quot;color: rgb(0, 0, 0); font-family: helvetica; font-size: 13px; font-style: normal; letter-spacing: normal; text-align: center; text-indent: 0px; text-transform: none; word-spacing: 0px; background-color: rgb(255, 255, 255);&quot;&gt;&lt;br style=&quot;font-size: 13px;&quot;&gt;&lt;/div&gt;" id="Fjx9dnmoz72Yz2STyHT2-10">
          <mxCell style="whiteSpace=wrap;html=1;align=center;treeFolding=1;treeMoving=1;newEdgeStyle={&quot;edgeStyle&quot;:&quot;elbowEdgeStyle&quot;,&quot;startArrow&quot;:&quot;none&quot;,&quot;endArrow&quot;:&quot;none&quot;};fontStyle=0;fontSize=13;" parent="1" vertex="1">
            <mxGeometry x="1050" y="482" width="164" height="60" as="geometry" />
          </mxCell>
        </UserObject>
        <mxCell id="Fjx9dnmoz72Yz2STyHT2-15" value="" style="edgeStyle=orthogonalEdgeStyle;rounded=0;orthogonalLoop=1;jettySize=auto;html=1;fontSize=13;" parent="1" source="Fjx9dnmoz72Yz2STyHT2-12" target="Fjx9dnmoz72Yz2STyHT2-14" edge="1">
          <mxGeometry relative="1" as="geometry" />
        </mxCell>
        <UserObject label="&lt;div style=&quot;font-size: 13px;&quot;&gt;job.Stage.&lt;/div&gt;&lt;div style=&quot;font-size: 13px;&quot;&gt;PreparingRestoreJobStage&lt;/div&gt;&lt;div style=&quot;font-size: 13px;&quot;&gt;handleTrigger()&lt;br style=&quot;color: rgb(0, 0, 0); font-family: helvetica; font-size: 13px; font-style: normal; letter-spacing: normal; text-align: center; text-indent: 0px; text-transform: none; word-spacing: 0px; background-color: rgb(255, 255, 255);&quot;&gt;&lt;br style=&quot;font-size: 13px;&quot;&gt;&lt;/div&gt;" id="Fjx9dnmoz72Yz2STyHT2-12">
          <mxCell style="whiteSpace=wrap;html=1;align=center;treeFolding=1;treeMoving=1;newEdgeStyle={&quot;edgeStyle&quot;:&quot;elbowEdgeStyle&quot;,&quot;startArrow&quot;:&quot;none&quot;,&quot;endArrow&quot;:&quot;none&quot;};fontStyle=0;fontSize=13;" parent="1" vertex="1">
            <mxGeometry x="1294" y="482" width="164" height="60" as="geometry" />
          </mxCell>
        </UserObject>
        <mxCell id="Fjx9dnmoz72Yz2STyHT2-17" value="" style="edgeStyle=orthogonalEdgeStyle;rounded=0;orthogonalLoop=1;jettySize=auto;html=1;fontSize=13;" parent="1" source="Fjx9dnmoz72Yz2STyHT2-14" target="Fjx9dnmoz72Yz2STyHT2-16" edge="1">
          <mxGeometry relative="1" as="geometry" />
        </mxCell>
        <UserObject label="&lt;div style=&quot;font-size: 13px;&quot;&gt;agent.Agent.&lt;/div&gt;&lt;div style=&quot;font-size: 13px;&quot;&gt;&lt;span style=&quot;font-size: 13px;&quot;&gt;prepareForRestore()&lt;/span&gt;&lt;/div&gt;&lt;div style=&quot;font-size: 13px;&quot;&gt;&lt;br style=&quot;font-size: 13px;&quot;&gt;&lt;/div&gt;" id="Fjx9dnmoz72Yz2STyHT2-14">
          <mxCell style="whiteSpace=wrap;html=1;align=center;treeFolding=1;treeMoving=1;newEdgeStyle={&quot;edgeStyle&quot;:&quot;elbowEdgeStyle&quot;,&quot;startArrow&quot;:&quot;none&quot;,&quot;endArrow&quot;:&quot;none&quot;};fontStyle=0;fontSize=13;" parent="1" vertex="1">
            <mxGeometry x="1538" y="482" width="164" height="60" as="geometry" />
          </mxCell>
        </UserObject>
        <mxCell id="Fjx9dnmoz72Yz2STyHT2-20" value="" style="edgeStyle=orthogonalEdgeStyle;rounded=0;orthogonalLoop=1;jettySize=auto;html=1;fontSize=13;" parent="1" source="Fjx9dnmoz72Yz2STyHT2-16" target="Fjx9dnmoz72Yz2STyHT2-19" edge="1">
          <mxGeometry relative="1" as="geometry" />
        </mxCell>
        <UserObject label="&lt;div style=&quot;font-size: 13px;&quot;&gt;agent.state.&lt;/div&gt;&lt;div style=&quot;font-size: 13px;&quot;&gt;RecognizedState&lt;/div&gt;&lt;div style=&quot;font-size: 13px;&quot;&gt;&lt;span style=&quot;font-size: 13px;&quot;&gt;prepareForRestore()&lt;/span&gt;&lt;/div&gt;&lt;div style=&quot;font-size: 13px;&quot;&gt;&lt;br style=&quot;font-size: 13px;&quot;&gt;&lt;/div&gt;" id="Fjx9dnmoz72Yz2STyHT2-16">
          <mxCell style="whiteSpace=wrap;html=1;align=center;treeFolding=1;treeMoving=1;newEdgeStyle={&quot;edgeStyle&quot;:&quot;elbowEdgeStyle&quot;,&quot;startArrow&quot;:&quot;none&quot;,&quot;endArrow&quot;:&quot;none&quot;};fontStyle=0;fontSize=13;" parent="1" vertex="1">
            <mxGeometry x="1782" y="482" width="164" height="60" as="geometry" />
          </mxCell>
        </UserObject>
        <mxCell id="Fjx9dnmoz72Yz2STyHT2-22" value="" style="edgeStyle=orthogonalEdgeStyle;rounded=0;orthogonalLoop=1;jettySize=auto;html=1;fontSize=13;" parent="1" source="Fjx9dnmoz72Yz2STyHT2-19" target="Fjx9dnmoz72Yz2STyHT2-21" edge="1">
          <mxGeometry relative="1" as="geometry" />
        </mxCell>
        <UserObject label="&lt;div style=&quot;font-size: 13px;&quot;&gt;agent.&lt;/div&gt;&lt;div style=&quot;font-size: 13px;&quot;&gt;AgentInputStream.&lt;/div&gt;&lt;div style=&quot;font-size: 13px;&quot;&gt;&lt;span style=&quot;font-size: 13px;&quot;&gt;prepareForRestore()&lt;/span&gt;&lt;/div&gt;&lt;div style=&quot;font-size: 13px;&quot;&gt;&lt;br style=&quot;font-size: 13px;&quot;&gt;&lt;/div&gt;" id="Fjx9dnmoz72Yz2STyHT2-19">
          <mxCell style="whiteSpace=wrap;html=1;align=center;treeFolding=1;treeMoving=1;newEdgeStyle={&quot;edgeStyle&quot;:&quot;elbowEdgeStyle&quot;,&quot;startArrow&quot;:&quot;none&quot;,&quot;endArrow&quot;:&quot;none&quot;};fontStyle=0;fontSize=13;" parent="1" vertex="1">
            <mxGeometry x="2026" y="482" width="164" height="60" as="geometry" />
          </mxCell>
        </UserObject>
        <UserObject label="&lt;div style=&quot;font-size: 13px;&quot;&gt;agent.&lt;/div&gt;&lt;div style=&quot;font-size: 13px;&quot;&gt;AgentInputStream.&lt;/div&gt;&lt;div style=&quot;font-size: 13px;&quot;&gt;&lt;span style=&quot;font-size: 13px;&quot;&gt;sendMessage()&lt;/span&gt;&lt;/div&gt;&lt;div style=&quot;font-size: 13px;&quot;&gt;&lt;br style=&quot;font-size: 13px;&quot;&gt;&lt;/div&gt;" id="Fjx9dnmoz72Yz2STyHT2-21">
          <mxCell style="whiteSpace=wrap;html=1;align=center;treeFolding=1;treeMoving=1;newEdgeStyle={&quot;edgeStyle&quot;:&quot;elbowEdgeStyle&quot;,&quot;startArrow&quot;:&quot;none&quot;,&quot;endArrow&quot;:&quot;none&quot;};fontStyle=0;fontSize=13;fillColor=#d5e8d4;strokeColor=#82b366;" parent="1" vertex="1">
            <mxGeometry x="2270" y="482" width="164" height="60" as="geometry" />
          </mxCell>
        </UserObject>
        <UserObject label="&lt;div style=&quot;font-size: 13px;&quot;&gt;backup.BackupManager.&lt;/div&gt;&lt;div style=&quot;font-size: 13px;&quot;&gt;getBackups()&lt;br style=&quot;color: rgb(0, 0, 0); font-family: helvetica; font-size: 13px; font-style: normal; letter-spacing: normal; text-align: center; text-indent: 0px; text-transform: none; word-spacing: 0px; background-color: rgb(255, 255, 255);&quot;&gt;&lt;br style=&quot;font-size: 13px;&quot;&gt;&lt;/div&gt;" id="Fjx9dnmoz72Yz2STyHT2-23">
          <mxCell style="whiteSpace=wrap;html=1;align=center;treeFolding=1;treeMoving=1;newEdgeStyle={&quot;edgeStyle&quot;:&quot;elbowEdgeStyle&quot;,&quot;startArrow&quot;:&quot;none&quot;,&quot;endArrow&quot;:&quot;none&quot;};fontStyle=0;fontSize=13;" parent="1" vertex="1">
            <mxGeometry x="1294" y="328" width="164" height="60" as="geometry" />
          </mxCell>
        </UserObject>
        <mxCell id="4Z4gMdMg-x6tJ-W0SStI-2" value="" style="edgeStyle=orthogonalEdgeStyle;rounded=0;orthogonalLoop=1;jettySize=auto;html=1;fontSize=13;" parent="1" source="kow7mqN-_49dPevDx9ai-1" target="4Z4gMdMg-x6tJ-W0SStI-1" edge="1">
          <mxGeometry relative="1" as="geometry" />
        </mxCell>
        <UserObject label="&lt;div style=&quot;font-size: 13px;&quot;&gt;agent.AgentOutputStream.&lt;/div&gt;&lt;div style=&quot;font-size: 13px;&quot;&gt;.onNext()&lt;/div&gt;" id="kow7mqN-_49dPevDx9ai-1">
          <mxCell style="whiteSpace=wrap;html=1;align=center;treeFolding=1;treeMoving=1;newEdgeStyle={&quot;edgeStyle&quot;:&quot;elbowEdgeStyle&quot;,&quot;startArrow&quot;:&quot;none&quot;,&quot;endArrow&quot;:&quot;none&quot;};fontStyle=0;fontSize=13;" parent="1" vertex="1">
            <mxGeometry x="806" y="584" width="164" height="60" as="geometry" />
          </mxCell>
        </UserObject>
        <mxCell id="4Z4gMdMg-x6tJ-W0SStI-4" value="" style="edgeStyle=orthogonalEdgeStyle;rounded=0;orthogonalLoop=1;jettySize=auto;html=1;fontSize=13;" parent="1" source="4Z4gMdMg-x6tJ-W0SStI-1" target="4Z4gMdMg-x6tJ-W0SStI-3" edge="1">
          <mxGeometry relative="1" as="geometry" />
        </mxCell>
        <UserObject label="&lt;div style=&quot;font-size: 13px;&quot;&gt;agent.Agent.&lt;/div&gt;&lt;div style=&quot;font-size: 13px;&quot;&gt;.processMessage()&lt;/div&gt;" id="4Z4gMdMg-x6tJ-W0SStI-1">
          <mxCell style="whiteSpace=wrap;html=1;align=center;treeFolding=1;treeMoving=1;newEdgeStyle={&quot;edgeStyle&quot;:&quot;elbowEdgeStyle&quot;,&quot;startArrow&quot;:&quot;none&quot;,&quot;endArrow&quot;:&quot;none&quot;};fontStyle=0;fontSize=13;" parent="1" vertex="1">
            <mxGeometry x="1050" y="584" width="164" height="60" as="geometry" />
          </mxCell>
        </UserObject>
        <mxCell id="4Z4gMdMg-x6tJ-W0SStI-6" value="" style="edgeStyle=orthogonalEdgeStyle;rounded=0;orthogonalLoop=1;jettySize=auto;html=1;fontSize=13;" parent="1" source="4Z4gMdMg-x6tJ-W0SStI-3" target="4Z4gMdMg-x6tJ-W0SStI-5" edge="1">
          <mxGeometry relative="1" as="geometry" />
        </mxCell>
        <UserObject label="&lt;div style=&quot;font-size: 13px;&quot;&gt;agent.Agent.&lt;/div&gt;&lt;div style=&quot;font-size: 13px;&quot;&gt;.processMessage()&lt;/div&gt;" id="4Z4gMdMg-x6tJ-W0SStI-3">
          <mxCell style="whiteSpace=wrap;html=1;align=center;treeFolding=1;treeMoving=1;newEdgeStyle={&quot;edgeStyle&quot;:&quot;elbowEdgeStyle&quot;,&quot;startArrow&quot;:&quot;none&quot;,&quot;endArrow&quot;:&quot;none&quot;};fontStyle=0;fontSize=13;" parent="1" vertex="1">
            <mxGeometry x="1294" y="584" width="164" height="60" as="geometry" />
          </mxCell>
        </UserObject>
        <mxCell id="4Z4gMdMg-x6tJ-W0SStI-8" value="" style="edgeStyle=orthogonalEdgeStyle;rounded=0;orthogonalLoop=1;jettySize=auto;html=1;fontSize=13;" parent="1" source="4Z4gMdMg-x6tJ-W0SStI-5" target="4Z4gMdMg-x6tJ-W0SStI-7" edge="1">
          <mxGeometry relative="1" as="geometry" />
        </mxCell>
        <UserObject label="&lt;div style=&quot;font-size: 13px;&quot;&gt;agent.state.&lt;/div&gt;&lt;div style=&quot;font-size: 13px;&quot;&gt;RestoreState&lt;/div&gt;&lt;div style=&quot;font-size: 13px;&quot;&gt;.processMessage()&lt;/div&gt;" id="4Z4gMdMg-x6tJ-W0SStI-5">
          <mxCell style="whiteSpace=wrap;html=1;align=center;treeFolding=1;treeMoving=1;newEdgeStyle={&quot;edgeStyle&quot;:&quot;elbowEdgeStyle&quot;,&quot;startArrow&quot;:&quot;none&quot;,&quot;endArrow&quot;:&quot;none&quot;};fontStyle=0;fontSize=13;" parent="1" vertex="1">
            <mxGeometry x="1538" y="584" width="164" height="60" as="geometry" />
          </mxCell>
        </UserObject>
        <mxCell id="4Z4gMdMg-x6tJ-W0SStI-10" value="" style="edgeStyle=orthogonalEdgeStyle;rounded=0;orthogonalLoop=1;jettySize=auto;html=1;fontSize=13;" parent="1" source="4Z4gMdMg-x6tJ-W0SStI-7" target="4Z4gMdMg-x6tJ-W0SStI-9" edge="1">
          <mxGeometry relative="1" as="geometry" />
        </mxCell>
        <UserObject label="&lt;div style=&quot;font-size: 13px;&quot;&gt;job.&lt;/div&gt;&lt;div style=&quot;font-size: 13px;&quot;&gt;JobWithStages.&lt;/div&gt;&lt;div style=&quot;font-size: 13px;&quot;&gt;.updateProgress()&lt;/div&gt;" id="4Z4gMdMg-x6tJ-W0SStI-7">
          <mxCell style="whiteSpace=wrap;html=1;align=center;treeFolding=1;treeMoving=1;newEdgeStyle={&quot;edgeStyle&quot;:&quot;elbowEdgeStyle&quot;,&quot;startArrow&quot;:&quot;none&quot;,&quot;endArrow&quot;:&quot;none&quot;};fontStyle=0;fontSize=13;" parent="1" vertex="1">
            <mxGeometry x="1782" y="584" width="164" height="60" as="geometry" />
          </mxCell>
        </UserObject>
        <mxCell id="4Z4gMdMg-x6tJ-W0SStI-12" value="" style="edgeStyle=orthogonalEdgeStyle;rounded=0;orthogonalLoop=1;jettySize=auto;html=1;fontSize=13;" parent="1" source="4Z4gMdMg-x6tJ-W0SStI-9" target="4Z4gMdMg-x6tJ-W0SStI-11" edge="1">
          <mxGeometry relative="1" as="geometry" />
        </mxCell>
        <UserObject label="&lt;div style=&quot;font-size: 13px;&quot;&gt;job.&lt;/div&gt;&lt;div style=&quot;font-size: 13px;&quot;&gt;JobWithStages.&lt;/div&gt;&lt;div style=&quot;font-size: 13px;&quot;&gt;.changeAndTriggerJobStage()&lt;/div&gt;" id="4Z4gMdMg-x6tJ-W0SStI-9">
          <mxCell style="whiteSpace=wrap;html=1;align=center;treeFolding=1;treeMoving=1;newEdgeStyle={&quot;edgeStyle&quot;:&quot;elbowEdgeStyle&quot;,&quot;startArrow&quot;:&quot;none&quot;,&quot;endArrow&quot;:&quot;none&quot;};fontStyle=0;fontSize=13;" parent="1" vertex="1">
            <mxGeometry x="2026" y="584" width="164" height="60" as="geometry" />
          </mxCell>
        </UserObject>
        <mxCell id="4Z4gMdMg-x6tJ-W0SStI-14" value="" style="edgeStyle=orthogonalEdgeStyle;rounded=0;orthogonalLoop=1;jettySize=auto;html=1;fontSize=13;" parent="1" source="4Z4gMdMg-x6tJ-W0SStI-11" target="4Z4gMdMg-x6tJ-W0SStI-13" edge="1">
          <mxGeometry relative="1" as="geometry" />
        </mxCell>
        <UserObject label="&lt;div style=&quot;font-size: 13px;&quot;&gt;job.stage&lt;/div&gt;&lt;div style=&quot;font-size: 13px;&quot;&gt;ExecutingRestoreJobStage.&lt;/div&gt;&lt;div style=&quot;font-size: 13px;&quot;&gt;.handleTrigger()&lt;/div&gt;" id="4Z4gMdMg-x6tJ-W0SStI-11">
          <mxCell style="whiteSpace=wrap;html=1;align=center;treeFolding=1;treeMoving=1;newEdgeStyle={&quot;edgeStyle&quot;:&quot;elbowEdgeStyle&quot;,&quot;startArrow&quot;:&quot;none&quot;,&quot;endArrow&quot;:&quot;none&quot;};fontStyle=0;fontSize=13;" parent="1" vertex="1">
            <mxGeometry x="2270" y="584" width="164" height="60" as="geometry" />
          </mxCell>
        </UserObject>
        <mxCell id="4Z4gMdMg-x6tJ-W0SStI-16" value="" style="edgeStyle=orthogonalEdgeStyle;rounded=0;orthogonalLoop=1;jettySize=auto;html=1;fontSize=13;" parent="1" source="4Z4gMdMg-x6tJ-W0SStI-13" target="4Z4gMdMg-x6tJ-W0SStI-15" edge="1">
          <mxGeometry relative="1" as="geometry" />
        </mxCell>
        <UserObject label="&lt;div style=&quot;font-size: 13px;&quot;&gt;agent.&lt;/div&gt;&lt;div style=&quot;font-size: 13px;&quot;&gt;Agent.&lt;/div&gt;&lt;div style=&quot;font-size: 13px;&quot;&gt;.executeRestore()&lt;/div&gt;" id="4Z4gMdMg-x6tJ-W0SStI-13">
          <mxCell style="whiteSpace=wrap;html=1;align=center;treeFolding=1;treeMoving=1;newEdgeStyle={&quot;edgeStyle&quot;:&quot;elbowEdgeStyle&quot;,&quot;startArrow&quot;:&quot;none&quot;,&quot;endArrow&quot;:&quot;none&quot;};fontStyle=0;fontSize=13;" parent="1" vertex="1">
            <mxGeometry x="2514" y="584" width="164" height="60" as="geometry" />
          </mxCell>
        </UserObject>
        <mxCell id="4Z4gMdMg-x6tJ-W0SStI-18" value="" style="edgeStyle=orthogonalEdgeStyle;rounded=0;orthogonalLoop=1;jettySize=auto;html=1;fontSize=13;" parent="1" source="4Z4gMdMg-x6tJ-W0SStI-15" target="4Z4gMdMg-x6tJ-W0SStI-17" edge="1">
          <mxGeometry relative="1" as="geometry" />
        </mxCell>
        <UserObject label="&lt;div style=&quot;font-size: 13px;&quot;&gt;agent.state&lt;/div&gt;&lt;div style=&quot;font-size: 13px;&quot;&gt;PreparingRestoreState.&lt;/div&gt;&lt;div style=&quot;font-size: 13px;&quot;&gt;.executeRestore()&lt;/div&gt;" id="4Z4gMdMg-x6tJ-W0SStI-15">
          <mxCell style="whiteSpace=wrap;html=1;align=center;treeFolding=1;treeMoving=1;newEdgeStyle={&quot;edgeStyle&quot;:&quot;elbowEdgeStyle&quot;,&quot;startArrow&quot;:&quot;none&quot;,&quot;endArrow&quot;:&quot;none&quot;};fontStyle=0;fontSize=13;" parent="1" vertex="1">
            <mxGeometry x="2758" y="584" width="164" height="60" as="geometry" />
          </mxCell>
        </UserObject>
        <mxCell id="Onfo3-FB-TA0vwuVxLcG-2" value="" style="edgeStyle=orthogonalEdgeStyle;rounded=0;orthogonalLoop=1;jettySize=auto;html=1;fontSize=13;" parent="1" source="4Z4gMdMg-x6tJ-W0SStI-17" target="Onfo3-FB-TA0vwuVxLcG-1" edge="1">
          <mxGeometry relative="1" as="geometry" />
        </mxCell>
        <UserObject label="&lt;div style=&quot;font-size: 13px;&quot;&gt;agent.&lt;/div&gt;&lt;div style=&quot;font-size: 13px;&quot;&gt;AgentInputStream.&lt;/div&gt;&lt;div style=&quot;font-size: 13px;&quot;&gt;.executeRestore()&lt;/div&gt;" id="4Z4gMdMg-x6tJ-W0SStI-17">
          <mxCell style="whiteSpace=wrap;html=1;align=center;treeFolding=1;treeMoving=1;newEdgeStyle={&quot;edgeStyle&quot;:&quot;elbowEdgeStyle&quot;,&quot;startArrow&quot;:&quot;none&quot;,&quot;endArrow&quot;:&quot;none&quot;};fontStyle=0;fontSize=13;" parent="1" vertex="1">
            <mxGeometry x="3002" y="584" width="164" height="60" as="geometry" />
          </mxCell>
        </UserObject>
        <mxCell id="4Z4gMdMg-x6tJ-W0SStI-21" value="" style="edgeStyle=orthogonalEdgeStyle;rounded=0;orthogonalLoop=1;jettySize=auto;html=1;fontSize=13;" parent="1" source="4Z4gMdMg-x6tJ-W0SStI-19" target="4Z4gMdMg-x6tJ-W0SStI-20" edge="1">
          <mxGeometry relative="1" as="geometry" />
        </mxCell>
        <UserObject label="&lt;div style=&quot;font-size: 13px;&quot;&gt;grpc.&lt;/div&gt;&lt;div style=&quot;font-size: 13px;&quot;&gt;DataInterfaceImplementation&lt;/div&gt;&lt;div style=&quot;font-size: 13px;&quot;&gt;.restore()&lt;/div&gt;" id="4Z4gMdMg-x6tJ-W0SStI-19">
          <mxCell style="whiteSpace=wrap;html=1;align=center;treeFolding=1;treeMoving=1;newEdgeStyle={&quot;edgeStyle&quot;:&quot;elbowEdgeStyle&quot;,&quot;startArrow&quot;:&quot;none&quot;,&quot;endArrow&quot;:&quot;none&quot;};fontStyle=0;fontSize=13;" parent="1" vertex="1">
            <mxGeometry x="806" y="689" width="164" height="60" as="geometry" />
          </mxCell>
        </UserObject>
        <mxCell id="4Z4gMdMg-x6tJ-W0SStI-23" value="" style="edgeStyle=orthogonalEdgeStyle;rounded=0;orthogonalLoop=1;jettySize=auto;html=1;fontSize=13;" parent="1" source="4Z4gMdMg-x6tJ-W0SStI-20" target="4Z4gMdMg-x6tJ-W0SStI-22" edge="1">
          <mxGeometry relative="1" as="geometry" />
        </mxCell>
        <UserObject label="&lt;div style=&quot;font-size: 13px;&quot;&gt;grpc.&lt;/div&gt;&lt;div style=&quot;font-size: 13px;&quot;&gt;DataInterfaceImplementation&lt;/div&gt;&lt;div style=&quot;font-size: 13px;&quot;&gt;.handleRestore()&lt;/div&gt;" id="4Z4gMdMg-x6tJ-W0SStI-20">
          <mxCell style="whiteSpace=wrap;html=1;align=center;treeFolding=1;treeMoving=1;newEdgeStyle={&quot;edgeStyle&quot;:&quot;elbowEdgeStyle&quot;,&quot;startArrow&quot;:&quot;none&quot;,&quot;endArrow&quot;:&quot;none&quot;};fontStyle=0;fontSize=13;" parent="1" vertex="1">
            <mxGeometry x="1050" y="689" width="164" height="60" as="geometry" />
          </mxCell>
        </UserObject>
        <mxCell id="Onfo3-FB-TA0vwuVxLcG-4" value="" style="edgeStyle=orthogonalEdgeStyle;rounded=0;orthogonalLoop=1;jettySize=auto;html=1;fontSize=13;" parent="1" source="4Z4gMdMg-x6tJ-W0SStI-22" target="Onfo3-FB-TA0vwuVxLcG-3" edge="1">
          <mxGeometry relative="1" as="geometry" />
        </mxCell>
        <UserObject label="&lt;div style=&quot;font-size: 13px;&quot;&gt;grpc.&lt;/div&gt;&lt;div style=&quot;font-size: 13px;&quot;&gt;DataInterfaceImplementation&lt;/div&gt;&lt;div style=&quot;font-size: 13px;&quot;&gt;.performRestore()&lt;/div&gt;" id="4Z4gMdMg-x6tJ-W0SStI-22">
          <mxCell style="whiteSpace=wrap;html=1;align=center;treeFolding=1;treeMoving=1;newEdgeStyle={&quot;edgeStyle&quot;:&quot;elbowEdgeStyle&quot;,&quot;startArrow&quot;:&quot;none&quot;,&quot;endArrow&quot;:&quot;none&quot;};fontStyle=0;fontSize=13;" parent="1" vertex="1">
            <mxGeometry x="1294" y="689" width="164" height="60" as="geometry" />
          </mxCell>
        </UserObject>
        <UserObject label="&lt;div style=&quot;font-size: 13px;&quot;&gt;agent.&lt;/div&gt;&lt;div style=&quot;font-size: 13px;&quot;&gt;AgentInputStream.&lt;/div&gt;&lt;div style=&quot;font-size: 13px;&quot;&gt;.sendMessage()&lt;/div&gt;" id="Onfo3-FB-TA0vwuVxLcG-1">
          <mxCell style="whiteSpace=wrap;html=1;align=center;treeFolding=1;treeMoving=1;newEdgeStyle={&quot;edgeStyle&quot;:&quot;elbowEdgeStyle&quot;,&quot;startArrow&quot;:&quot;none&quot;,&quot;endArrow&quot;:&quot;none&quot;};fontStyle=0;fontSize=13;fillColor=#d5e8d4;strokeColor=#82b366;" parent="1" vertex="1">
            <mxGeometry x="3246" y="584" width="164" height="60" as="geometry" />
          </mxCell>
        </UserObject>
        <mxCell id="Onfo3-FB-TA0vwuVxLcG-6" value="" style="edgeStyle=orthogonalEdgeStyle;rounded=0;orthogonalLoop=1;jettySize=auto;html=1;fontSize=13;" parent="1" source="Onfo3-FB-TA0vwuVxLcG-3" target="Onfo3-FB-TA0vwuVxLcG-5" edge="1">
          <mxGeometry relative="1" as="geometry" />
        </mxCell>
        <mxCell id="Onfo3-FB-TA0vwuVxLcG-16" style="edgeStyle=orthogonalEdgeStyle;rounded=0;orthogonalLoop=1;jettySize=auto;html=1;exitX=0.75;exitY=1;exitDx=0;exitDy=0;entryX=0;entryY=0.5;entryDx=0;entryDy=0;fontSize=13;" parent="1" source="Onfo3-FB-TA0vwuVxLcG-3" target="Onfo3-FB-TA0vwuVxLcG-15" edge="1">
          <mxGeometry relative="1" as="geometry" />
        </mxCell>
        <UserObject label="&lt;div style=&quot;font-size: 13px;&quot;&gt;grpc.restore&lt;/div&gt;&lt;div style=&quot;font-size: 13px;&quot;&gt;RestoreDataService&lt;/div&gt;&lt;div style=&quot;font-size: 13px;&quot;&gt;.processMessage()&lt;/div&gt;" id="Onfo3-FB-TA0vwuVxLcG-3">
          <mxCell style="whiteSpace=wrap;html=1;align=center;treeFolding=1;treeMoving=1;newEdgeStyle={&quot;edgeStyle&quot;:&quot;elbowEdgeStyle&quot;,&quot;startArrow&quot;:&quot;none&quot;,&quot;endArrow&quot;:&quot;none&quot;};fontStyle=0;fontSize=13;" parent="1" vertex="1">
            <mxGeometry x="1538" y="689" width="164" height="60" as="geometry" />
          </mxCell>
        </UserObject>
        <mxCell id="Onfo3-FB-TA0vwuVxLcG-8" value="" style="edgeStyle=orthogonalEdgeStyle;rounded=0;orthogonalLoop=1;jettySize=auto;html=1;fontSize=13;" parent="1" source="Onfo3-FB-TA0vwuVxLcG-5" target="Onfo3-FB-TA0vwuVxLcG-7" edge="1">
          <mxGeometry relative="1" as="geometry" />
        </mxCell>
        <UserObject label="&lt;div style=&quot;font-size: 13px;&quot;&gt;restore&lt;/div&gt;&lt;div style=&quot;font-size: 13px;&quot;&gt;RestoreBackupFile&lt;/div&gt;&lt;div style=&quot;font-size: 13px;&quot;&gt;.sendFile()&lt;/div&gt;" id="Onfo3-FB-TA0vwuVxLcG-5">
          <mxCell style="whiteSpace=wrap;html=1;align=center;treeFolding=1;treeMoving=1;newEdgeStyle={&quot;edgeStyle&quot;:&quot;elbowEdgeStyle&quot;,&quot;startArrow&quot;:&quot;none&quot;,&quot;endArrow&quot;:&quot;none&quot;};fontStyle=0;fontSize=13;" parent="1" vertex="1">
            <mxGeometry x="1782" y="689" width="164" height="60" as="geometry" />
          </mxCell>
        </UserObject>
        <mxCell id="Onfo3-FB-TA0vwuVxLcG-10" value="" style="edgeStyle=orthogonalEdgeStyle;rounded=0;orthogonalLoop=1;jettySize=auto;html=1;fontSize=13;" parent="1" source="Onfo3-FB-TA0vwuVxLcG-7" target="Onfo3-FB-TA0vwuVxLcG-9" edge="1">
          <mxGeometry relative="1" as="geometry" />
        </mxCell>
        <mxCell id="Onfo3-FB-TA0vwuVxLcG-12" style="edgeStyle=orthogonalEdgeStyle;rounded=0;orthogonalLoop=1;jettySize=auto;html=1;exitX=0.75;exitY=1;exitDx=0;exitDy=0;entryX=0;entryY=0.5;entryDx=0;entryDy=0;fontSize=13;" parent="1" source="Onfo3-FB-TA0vwuVxLcG-7" target="Onfo3-FB-TA0vwuVxLcG-11" edge="1">
          <mxGeometry relative="1" as="geometry" />
        </mxCell>
        <mxCell id="Onfo3-FB-TA0vwuVxLcG-27" style="edgeStyle=orthogonalEdgeStyle;rounded=0;orthogonalLoop=1;jettySize=auto;html=1;exitX=0.5;exitY=1;exitDx=0;exitDy=0;entryX=0;entryY=0.5;entryDx=0;entryDy=0;fontSize=13;" parent="1" source="Onfo3-FB-TA0vwuVxLcG-7" target="Onfo3-FB-TA0vwuVxLcG-22" edge="1">
          <mxGeometry relative="1" as="geometry" />
        </mxCell>
        <UserObject label="&lt;div style=&quot;font-size: 13px;&quot;&gt;restore&lt;/div&gt;&lt;div style=&quot;font-size: 13px;&quot;&gt;RestoreBackupFile&lt;/div&gt;&lt;div style=&quot;font-size: 13px;&quot;&gt;.sendBackupChunks()&lt;/div&gt;" id="Onfo3-FB-TA0vwuVxLcG-7">
          <mxCell style="whiteSpace=wrap;html=1;align=center;treeFolding=1;treeMoving=1;newEdgeStyle={&quot;edgeStyle&quot;:&quot;elbowEdgeStyle&quot;,&quot;startArrow&quot;:&quot;none&quot;,&quot;endArrow&quot;:&quot;none&quot;};fontStyle=0;fontSize=13;fillColor=#dae8fc;strokeColor=#6c8ebf;" parent="1" vertex="1">
            <mxGeometry x="2026" y="689" width="164" height="60" as="geometry" />
          </mxCell>
        </UserObject>
        <UserObject label="&lt;div style=&quot;font-size: 13px;&quot;&gt;restore&lt;/div&gt;&lt;div style=&quot;font-size: 13px;&quot;&gt;RestoreBackupFile&lt;/div&gt;&lt;div style=&quot;font-size: 13px;&quot;&gt;.sendFileName()&lt;/div&gt;" id="Onfo3-FB-TA0vwuVxLcG-9">
          <mxCell style="whiteSpace=wrap;html=1;align=center;treeFolding=1;treeMoving=1;newEdgeStyle={&quot;edgeStyle&quot;:&quot;elbowEdgeStyle&quot;,&quot;startArrow&quot;:&quot;none&quot;,&quot;endArrow&quot;:&quot;none&quot;};fontStyle=0;fontSize=13;" parent="1" vertex="1">
            <mxGeometry x="2270" y="689" width="164" height="60" as="geometry" />
          </mxCell>
        </UserObject>
        <mxCell id="Onfo3-FB-TA0vwuVxLcG-14" value="" style="edgeStyle=orthogonalEdgeStyle;rounded=0;orthogonalLoop=1;jettySize=auto;html=1;fontSize=13;" parent="1" source="Onfo3-FB-TA0vwuVxLcG-11" target="Onfo3-FB-TA0vwuVxLcG-13" edge="1">
          <mxGeometry relative="1" as="geometry" />
        </mxCell>
        <UserObject label="&lt;div style=&quot;font-size: 13px;&quot;&gt;agent.api.filetransfer&lt;/div&gt;&lt;div style=&quot;font-size: 13px;&quot;&gt;FileChunkServiceUtil&lt;/div&gt;&lt;div style=&quot;font-size: 13px;&quot;&gt;.processFileChunks()&lt;/div&gt;" id="Onfo3-FB-TA0vwuVxLcG-11">
          <mxCell style="whiteSpace=wrap;html=1;align=center;treeFolding=1;treeMoving=1;newEdgeStyle={&quot;edgeStyle&quot;:&quot;elbowEdgeStyle&quot;,&quot;startArrow&quot;:&quot;none&quot;,&quot;endArrow&quot;:&quot;none&quot;};fontStyle=0;fontSize=13;" parent="1" vertex="1">
            <mxGeometry x="2270" y="782" width="164" height="60" as="geometry" />
          </mxCell>
        </UserObject>
        <UserObject label="&lt;div style=&quot;font-size: 13px;&quot;&gt;restore&lt;/div&gt;&lt;div style=&quot;font-size: 13px;&quot;&gt;RestoreBackupFile&lt;/div&gt;&lt;div style=&quot;font-size: 13px;&quot;&gt;.sendChunk()&lt;/div&gt;" id="Onfo3-FB-TA0vwuVxLcG-13">
          <mxCell style="whiteSpace=wrap;html=1;align=center;treeFolding=1;treeMoving=1;newEdgeStyle={&quot;edgeStyle&quot;:&quot;elbowEdgeStyle&quot;,&quot;startArrow&quot;:&quot;none&quot;,&quot;endArrow&quot;:&quot;none&quot;};fontStyle=0;fontSize=13;fillColor=#d5e8d4;strokeColor=#82b366;" parent="1" vertex="1">
            <mxGeometry x="2514" y="782" width="164" height="60" as="geometry" />
          </mxCell>
        </UserObject>
        <mxCell id="Onfo3-FB-TA0vwuVxLcG-18" value="" style="edgeStyle=orthogonalEdgeStyle;rounded=0;orthogonalLoop=1;jettySize=auto;html=1;fontSize=13;" parent="1" source="Onfo3-FB-TA0vwuVxLcG-15" target="Onfo3-FB-TA0vwuVxLcG-17" edge="1">
          <mxGeometry relative="1" as="geometry" />
        </mxCell>
        <UserObject label="&lt;div style=&quot;font-size: 13px;&quot;&gt;restore&lt;/div&gt;&lt;div style=&quot;font-size: 13px;&quot;&gt;RestoreDataService&lt;/div&gt;&lt;div style=&quot;font-size: 13px;&quot;&gt;.sendCustomMetadata()&lt;/div&gt;" id="Onfo3-FB-TA0vwuVxLcG-15">
          <mxCell style="whiteSpace=wrap;html=1;align=center;treeFolding=1;treeMoving=1;newEdgeStyle={&quot;edgeStyle&quot;:&quot;elbowEdgeStyle&quot;,&quot;startArrow&quot;:&quot;none&quot;,&quot;endArrow&quot;:&quot;none&quot;};fontStyle=0;fontSize=13;" parent="1" vertex="1">
            <mxGeometry x="1782" y="948" width="164" height="60" as="geometry" />
          </mxCell>
        </UserObject>
        <mxCell id="Onfo3-FB-TA0vwuVxLcG-21" value="" style="edgeStyle=orthogonalEdgeStyle;rounded=0;orthogonalLoop=1;jettySize=auto;html=1;fontSize=13;" parent="1" source="Onfo3-FB-TA0vwuVxLcG-17" target="Onfo3-FB-TA0vwuVxLcG-20" edge="1">
          <mxGeometry relative="1" as="geometry" />
        </mxCell>
        <mxCell id="Onfo3-FB-TA0vwuVxLcG-26" style="edgeStyle=orthogonalEdgeStyle;rounded=0;orthogonalLoop=1;jettySize=auto;html=1;exitX=0.75;exitY=1;exitDx=0;exitDy=0;entryX=0;entryY=0.5;entryDx=0;entryDy=0;fontSize=13;" parent="1" source="Onfo3-FB-TA0vwuVxLcG-17" target="Onfo3-FB-TA0vwuVxLcG-25" edge="1">
          <mxGeometry relative="1" as="geometry" />
        </mxCell>
        <mxCell id="Onfo3-FB-TA0vwuVxLcG-31" style="edgeStyle=orthogonalEdgeStyle;rounded=0;orthogonalLoop=1;jettySize=auto;html=1;exitX=0.5;exitY=1;exitDx=0;exitDy=0;entryX=0;entryY=0.5;entryDx=0;entryDy=0;fontSize=13;" parent="1" source="Onfo3-FB-TA0vwuVxLcG-17" target="Onfo3-FB-TA0vwuVxLcG-30" edge="1">
          <mxGeometry relative="1" as="geometry" />
        </mxCell>
        <UserObject label="&lt;div style=&quot;font-size: 13px;&quot;&gt;restore&lt;/div&gt;&lt;div style=&quot;font-size: 13px;&quot;&gt;RestoreCustomMetaDataFile&lt;/div&gt;&lt;div style=&quot;font-size: 13px;&quot;&gt;.sendCustomMetadataChunks()&lt;/div&gt;" id="Onfo3-FB-TA0vwuVxLcG-17">
          <mxCell style="whiteSpace=wrap;html=1;align=center;treeFolding=1;treeMoving=1;newEdgeStyle={&quot;edgeStyle&quot;:&quot;elbowEdgeStyle&quot;,&quot;startArrow&quot;:&quot;none&quot;,&quot;endArrow&quot;:&quot;none&quot;};fontStyle=0;fontSize=13;fillColor=#dae8fc;strokeColor=#6c8ebf;" parent="1" vertex="1">
            <mxGeometry x="2010" y="948" width="164" height="60" as="geometry" />
          </mxCell>
        </UserObject>
        <UserObject label="&lt;div style=&quot;font-size: 13px;&quot;&gt;restore&lt;/div&gt;&lt;div style=&quot;font-size: 13px;&quot;&gt;RestoreCustomMetaDataFile&lt;/div&gt;&lt;div style=&quot;font-size: 13px;&quot;&gt;.sendFileName()&lt;/div&gt;" id="Onfo3-FB-TA0vwuVxLcG-20">
          <mxCell style="whiteSpace=wrap;html=1;align=center;treeFolding=1;treeMoving=1;newEdgeStyle={&quot;edgeStyle&quot;:&quot;elbowEdgeStyle&quot;,&quot;startArrow&quot;:&quot;none&quot;,&quot;endArrow&quot;:&quot;none&quot;};fontStyle=0;fontSize=13;" parent="1" vertex="1">
            <mxGeometry x="2254" y="948" width="164" height="60" as="geometry" />
          </mxCell>
        </UserObject>
        <UserObject label="&lt;div style=&quot;font-size: 13px;&quot;&gt;restore&lt;/div&gt;&lt;div style=&quot;font-size: 13px;&quot;&gt;RestoreBackupFile&lt;/div&gt;&lt;div style=&quot;font-size: 13px;&quot;&gt;.sendChecksum()&lt;/div&gt;" id="Onfo3-FB-TA0vwuVxLcG-22">
          <mxCell style="whiteSpace=wrap;html=1;align=center;treeFolding=1;treeMoving=1;newEdgeStyle={&quot;edgeStyle&quot;:&quot;elbowEdgeStyle&quot;,&quot;startArrow&quot;:&quot;none&quot;,&quot;endArrow&quot;:&quot;none&quot;};fontStyle=0;fontSize=13;" parent="1" vertex="1">
            <mxGeometry x="2270" y="875" width="164" height="60" as="geometry" />
          </mxCell>
        </UserObject>
        <mxCell id="Onfo3-FB-TA0vwuVxLcG-29" value="" style="edgeStyle=orthogonalEdgeStyle;rounded=0;orthogonalLoop=1;jettySize=auto;html=1;fontSize=13;" parent="1" source="Onfo3-FB-TA0vwuVxLcG-25" target="Onfo3-FB-TA0vwuVxLcG-28" edge="1">
          <mxGeometry relative="1" as="geometry" />
        </mxCell>
        <UserObject label="&lt;div style=&quot;font-size: 13px;&quot;&gt;agent.api.filetransfer&lt;/div&gt;&lt;div style=&quot;font-size: 13px;&quot;&gt;FileChunkServiceUtil&lt;/div&gt;&lt;div style=&quot;font-size: 13px;&quot;&gt;.processFileChunks()&lt;/div&gt;" id="Onfo3-FB-TA0vwuVxLcG-25">
          <mxCell style="whiteSpace=wrap;html=1;align=center;treeFolding=1;treeMoving=1;newEdgeStyle={&quot;edgeStyle&quot;:&quot;elbowEdgeStyle&quot;,&quot;startArrow&quot;:&quot;none&quot;,&quot;endArrow&quot;:&quot;none&quot;};fontStyle=0;fontSize=13;" parent="1" vertex="1">
            <mxGeometry x="2254" y="1044" width="164" height="60" as="geometry" />
          </mxCell>
        </UserObject>
        <UserObject label="&lt;div style=&quot;font-size: 13px;&quot;&gt;restore&lt;/div&gt;&lt;div style=&quot;font-size: 13px;&quot;&gt;restoreCustomMetadataFile&lt;/div&gt;&lt;div style=&quot;font-size: 13px;&quot;&gt;.sendChunkCustomData()&lt;/div&gt;" id="Onfo3-FB-TA0vwuVxLcG-28">
          <mxCell style="whiteSpace=wrap;html=1;align=center;treeFolding=1;treeMoving=1;newEdgeStyle={&quot;edgeStyle&quot;:&quot;elbowEdgeStyle&quot;,&quot;startArrow&quot;:&quot;none&quot;,&quot;endArrow&quot;:&quot;none&quot;};fontStyle=0;fontSize=13;fillColor=#d5e8d4;strokeColor=#82b366;" parent="1" vertex="1">
            <mxGeometry x="2498" y="1044" width="164" height="60" as="geometry" />
          </mxCell>
        </UserObject>
        <UserObject label="&lt;div style=&quot;font-size: 13px;&quot;&gt;restore&lt;/div&gt;&lt;div style=&quot;font-size: 13px;&quot;&gt;RestoreCustomMetaDataFile&lt;/div&gt;&lt;div style=&quot;font-size: 13px;&quot;&gt;.sendCustomMetadataCheckSum()&lt;/div&gt;" id="Onfo3-FB-TA0vwuVxLcG-30">
          <mxCell style="whiteSpace=wrap;html=1;align=center;treeFolding=1;treeMoving=1;newEdgeStyle={&quot;edgeStyle&quot;:&quot;elbowEdgeStyle&quot;,&quot;startArrow&quot;:&quot;none&quot;,&quot;endArrow&quot;:&quot;none&quot;};fontStyle=0;fontSize=13;" parent="1" vertex="1">
            <mxGeometry x="2254" y="1140" width="164" height="60" as="geometry" />
          </mxCell>
        </UserObject>
      </root>
    </mxGraphModel>
  </diagram>
  <diagram id="R3RoUXutfNqbzqMdvnP6" name="Agent State Loop">
    <mxGraphModel dx="1052" dy="554" grid="0" gridSize="10" guides="1" tooltips="1" connect="1" arrows="1" fold="1" page="0" pageScale="1" pageWidth="827" pageHeight="1169" math="0" shadow="0">
      <root>
        <mxCell id="YIyKynR0rkKEg_xDmPHq-0" />
        <mxCell id="YIyKynR0rkKEg_xDmPHq-1" parent="YIyKynR0rkKEg_xDmPHq-0" />
        <mxCell id="YIyKynR0rkKEg_xDmPHq-4" value="register" style="edgeStyle=orthogonalEdgeStyle;rounded=0;orthogonalLoop=1;jettySize=auto;html=1;" edge="1" parent="YIyKynR0rkKEg_xDmPHq-1" source="YIyKynR0rkKEg_xDmPHq-2" target="YIyKynR0rkKEg_xDmPHq-3">
          <mxGeometry relative="1" as="geometry" />
        </mxCell>
        <mxCell id="YIyKynR0rkKEg_xDmPHq-2" value="UnrecognizedState" style="rounded=0;whiteSpace=wrap;html=1;" vertex="1" parent="YIyKynR0rkKEg_xDmPHq-1">
          <mxGeometry x="91" y="237" width="120" height="60" as="geometry" />
        </mxCell>
        <mxCell id="YIyKynR0rkKEg_xDmPHq-6" value="restore" style="edgeStyle=orthogonalEdgeStyle;rounded=0;orthogonalLoop=1;jettySize=auto;html=1;" edge="1" parent="YIyKynR0rkKEg_xDmPHq-1" source="YIyKynR0rkKEg_xDmPHq-3" target="YIyKynR0rkKEg_xDmPHq-5">
          <mxGeometry relative="1" as="geometry" />
        </mxCell>
        <mxCell id="YIyKynR0rkKEg_xDmPHq-3" value="RecognizedState" style="rounded=0;whiteSpace=wrap;html=1;" vertex="1" parent="YIyKynR0rkKEg_xDmPHq-1">
          <mxGeometry x="371" y="237" width="120" height="60" as="geometry" />
        </mxCell>
        <mxCell id="YIyKynR0rkKEg_xDmPHq-8" value="" style="edgeStyle=orthogonalEdgeStyle;rounded=0;orthogonalLoop=1;jettySize=auto;html=1;" edge="1" parent="YIyKynR0rkKEg_xDmPHq-1" source="YIyKynR0rkKEg_xDmPHq-5" target="YIyKynR0rkKEg_xDmPHq-7">
          <mxGeometry relative="1" as="geometry" />
        </mxCell>
        <mxCell id="YIyKynR0rkKEg_xDmPHq-5" value="PreparingRestoreState" style="rounded=0;whiteSpace=wrap;html=1;" vertex="1" parent="YIyKynR0rkKEg_xDmPHq-1">
          <mxGeometry x="590" y="237" width="146" height="60" as="geometry" />
        </mxCell>
        <mxCell id="YIyKynR0rkKEg_xDmPHq-9" style="edgeStyle=orthogonalEdgeStyle;rounded=0;orthogonalLoop=1;jettySize=auto;html=1;exitX=1;exitY=0.5;exitDx=0;exitDy=0;" edge="1" parent="YIyKynR0rkKEg_xDmPHq-1" source="YIyKynR0rkKEg_xDmPHq-7">
          <mxGeometry relative="1" as="geometry">
            <mxPoint x="889.2520751953125" y="230.92010498046875" as="targetPoint" />
            <Array as="points">
              <mxPoint x="982" y="267" />
              <mxPoint x="982" y="195" />
              <mxPoint x="889" y="195" />
            </Array>
          </mxGeometry>
        </mxCell>
        <mxCell id="YIyKynR0rkKEg_xDmPHq-11" value="" style="edgeStyle=orthogonalEdgeStyle;rounded=0;orthogonalLoop=1;jettySize=auto;html=1;" edge="1" parent="YIyKynR0rkKEg_xDmPHq-1" source="YIyKynR0rkKEg_xDmPHq-7" target="YIyKynR0rkKEg_xDmPHq-10">
          <mxGeometry relative="1" as="geometry" />
        </mxCell>
        <mxCell id="YIyKynR0rkKEg_xDmPHq-7" value="ExecutingRestoreState" style="rounded=0;whiteSpace=wrap;html=1;" vertex="1" parent="YIyKynR0rkKEg_xDmPHq-1">
          <mxGeometry x="816" y="237" width="146" height="60" as="geometry" />
        </mxCell>
        <mxCell id="YIyKynR0rkKEg_xDmPHq-12" style="edgeStyle=orthogonalEdgeStyle;rounded=0;orthogonalLoop=1;jettySize=auto;html=1;exitX=1;exitY=0.5;exitDx=0;exitDy=0;" edge="1" parent="YIyKynR0rkKEg_xDmPHq-1" source="YIyKynR0rkKEg_xDmPHq-10">
          <mxGeometry relative="1" as="geometry">
            <mxPoint x="1115.13427734375" y="232.5335693359375" as="targetPoint" />
          </mxGeometry>
        </mxCell>
        <mxCell id="YIyKynR0rkKEg_xDmPHq-10" value="PostActionRestoreState" style="rounded=0;whiteSpace=wrap;html=1;" vertex="1" parent="YIyKynR0rkKEg_xDmPHq-1">
          <mxGeometry x="1042" y="237" width="146" height="60" as="geometry" />
        </mxCell>
      </root>
    </mxGraphModel>
  </diagram>
</mxfile>
